<svg xmlns="http://www.w3.org/2000/svg" viewBox="0 0 14.45 15.57"><title>Ресурс 1</title><path d="M14.37,5.54a3.62,3.62,0,0,0-1.71-3A31.36,31.36,0,0,0,8.93.43a3.63,3.63,0,0,0-3.42,0A32.18,32.18,0,0,0,1.78,2.58a3.67,3.67,0,0,0-1.71,3,37.53,37.53,0,0,0,0,4.5,3.67,3.67,0,0,0,1.72,3,31.24,31.24,0,0,0,3.72,2.15,3.91,3.91,0,0,0,1.71.42,3.73,3.73,0,0,0,1.71-.43A30.59,30.59,0,0,0,12.66,13a3.61,3.61,0,0,0,1.71-3A33.79,33.79,0,0,0,14.37,5.54ZM13.7,10a3,3,0,0,1-1.41,2.44,30.2,30.2,0,0,1-3.66,2.11,3,3,0,0,1-2.81,0,30.2,30.2,0,0,1-3.66-2.11A3,3,0,0,1,.75,10a32.45,32.45,0,0,1,0-4.41A3,3,0,0,1,2.16,3.14,30.2,30.2,0,0,1,5.82,1,3,3,0,0,1,8.63,1a31.59,31.59,0,0,1,3.66,2.11A3,3,0,0,1,13.7,5.58,32.45,32.45,0,0,1,13.7,10Z"/><path d="M5.11,6.18H3.74a.63.63,0,0,1-.64-.63V4.17a.64.64,0,0,1,.64-.64H5.11a.64.64,0,0,1,.64.64V5.55A.64.64,0,0,1,5.11,6.18ZM3.74,3.83a.35.35,0,0,0-.35.34V5.55a.35.35,0,0,0,.35.34H5.11a.35.35,0,0,0,.35-.34V4.17a.35.35,0,0,0-.35-.34Z"/><rect x="3.83" y="4.27" width="1.18" height="1.18" rx="0.25"/><path d="M10.52,6.18H9.14a.64.64,0,0,1-.64-.63V4.17a.64.64,0,0,1,.64-.64h1.38a.64.64,0,0,1,.64.64V5.55A.64.64,0,0,1,10.52,6.18ZM9.14,3.83a.34.34,0,0,0-.34.34V5.55a.34.34,0,0,0,.34.34h1.38a.34.34,0,0,0,.34-.34V4.17a.34.34,0,0,0-.34-.34Z"/><rect x="9.24" y="4.27" width="1.18" height="1.18" rx="0.25"/><path d="M5.11,11.59H3.74A.63.63,0,0,1,3.1,11V9.58a.63.63,0,0,1,.64-.64H5.11a.64.64,0,0,1,.64.64V11A.64.64,0,0,1,5.11,11.59ZM3.74,9.23a.35.35,0,0,0-.35.35V11a.35.35,0,0,0,.35.35H5.11A.35.35,0,0,0,5.46,11h0V9.58a.35.35,0,0,0-.35-.35Z"/><rect x="3.83" y="9.68" width="1.18" height="1.18" rx="0.25"/><path d="M8.4,10.94l-1-1-.32.32,1.3,1.29,2.77-2.77-.32-.32Z"/></svg>